<?xml version="1.0" standalone="no"?>
<!DOCTYPE svg PUBLIC "-//W3C//DTD SVG 20010904//EN"
 "http://www.w3.org/TR/2001/REC-SVG-20010904/DTD/svg10.dtd">
<svg version="1.0" xmlns="http://www.w3.org/2000/svg"
 width="225.000000pt" height="225.000000pt" viewBox="0 0 225.000000 225.000000"
 preserveAspectRatio="xMidYMid meet">

<g transform="translate(0.000000,225.000000) scale(0.100000,-0.100000)"
fill="#000000" stroke="none">
<path d="M815 1828 c-171 -99 -339 -196 -373 -215 -35 -20 -66 -42 -69 -50 -7
-19 126 -814 139 -830 7 -9 508 -411 592 -475 21 -16 23 -15 72 25 28 23 166
136 306 251 l255 208 71 397 c40 218 72 404 72 413 0 11 -43 42 -117 86 -119
70 -524 306 -598 348 l-40 23 -310 -181z m303 -75 c-10 -2 -28 -2 -40 0 -13 2
-5 4 17 4 22 1 32 -1 23 -4z m-95 -10 c-7 -2 -19 -2 -25 0 -7 3 -2 5 12 5 14
0 19 -2 13 -5z m-46 -9 c-3 -3 -12 -4 -19 -1 -8 3 -5 6 6 6 11 1 17 -2 13 -5z
m444 -115 c66 -44 140 -126 182 -201 36 -63 33 -61 -22 12 -59 79 -149 168
-203 202 -27 16 -48 31 -48 34 0 8 38 -11 91 -47z m145 -54 c9 -8 11 -15 6
-15 -5 0 -15 7 -22 15 -7 8 -9 15 -6 15 4 0 14 -7 22 -15z m-282 -271 c3 -8 2
-12 -4 -9 -6 3 -10 10 -10 16 0 14 7 11 14 -7z m-154 -17 c-19 -7 -36 -9 -38
-5 -2 4 -14 5 -27 2 -12 -3 -26 -1 -29 5 -5 8 15 11 61 10 66 0 67 0 33 -12z
m455 -152 c2 -44 1 -62 -1 -40 -3 34 -13 92 -30 170 -2 11 4 4 13 -15 9 -21
17 -67 18 -115z m-345 99 c27 -11 29 -13 8 -9 -18 4 -30 0 -36 -11 -6 -11 -11
-13 -16 -5 -4 6 -2 11 3 11 18 0 12 18 -6 23 -12 3 -13 5 -3 5 8 0 31 -6 50
-14z m15 -46 c5 4 5 1 1 -6 -6 -10 -11 -10 -22 -1 -8 6 -14 14 -14 16 0 3 6 0
13 -6 8 -6 18 -7 22 -3z m90 -52 c19 -15 19 -15 -7 -14 -15 1 -26 7 -25 12 1
6 -2 11 -8 11 -23 3 -45 18 -39 26 5 9 44 -8 79 -35z m-544 -49 c-17 -17 -24
-1 -10 25 12 21 14 21 17 4 2 -10 -1 -23 -7 -29z m606 -59 c-3 -7 -5 -2 -5 12
0 14 2 19 5 13 2 -7 2 -19 0 -25z m180 -15 c-3 -10 -5 -4 -5 12 0 17 2 24 5
18 2 -7 2 -21 0 -30z m-506 10 c13 -16 12 -17 -3 -4 -10 7 -18 15 -18 17 0 8
8 3 21 -13z m316 -45 c-3 -8 -6 -5 -6 6 -1 11 2 17 5 13 3 -3 4 -12 1 -19z
m-442 3 c3 -5 0 -13 -6 -17 -8 -4 -9 -3 -5 4 9 16 -7 15 -22 0 -8 -8 -12 -9
-12 -1 0 10 14 20 32 22 4 1 9 -3 13 -8z m8 -42 c-8 -8 -16 -8 -30 0 -16 11
-16 11 5 6 14 -4 22 -2 22 6 0 7 3 9 7 6 4 -4 2 -12 -4 -18z m402 -58 c-15
-32 -41 -72 -58 -88 l-32 -28 27 30 c28 31 77 128 79 155 0 10 2 11 6 3 2 -7
-8 -39 -22 -72z m-482 43 c-3 -9 0 -20 8 -26 12 -8 11 -9 -1 -5 -17 4 -27 47
-11 47 6 0 8 -7 4 -16z m-8 -72 c-3 -3 -11 0 -18 7 -9 10 -8 11 6 5 10 -3 15
-9 12 -12z m-78 -68 c-3 -3 -12 -4 -19 -1 -8 3 -5 6 6 6 11 1 17 -2 13 -5z
m-87 -51 c-8 -2 -21 -7 -29 -9 -11 -4 -10 -9 5 -27 l19 -22 -22 19 c-18 15
-20 22 -12 33 6 7 21 13 33 12 14 0 16 -2 6 -6z"/>
</g>
</svg>
